<mxfile host="app.diagrams.net" modified="2023-11-15T15:00:53.603Z" agent="Mozilla/5.0 (Windows NT 10.0; Win64; x64) AppleWebKit/537.36 (KHTML, like Gecko) Chrome/119.0.0.0 Safari/537.36" etag="yKmEuqevUhQdS3-3ZftJ" version="22.1.1" type="device">
  <diagram name="Page-1" id="9oAxFKHwxlZn96xhlQ3U">
    <mxGraphModel dx="880" dy="478" grid="1" gridSize="10" guides="1" tooltips="1" connect="1" arrows="1" fold="1" page="1" pageScale="1" pageWidth="827" pageHeight="1169" background="#FFE599" math="0" shadow="1">
      <root>
        <mxCell id="0" />
        <mxCell id="1" parent="0" />
        <mxCell id="WV0uYTEq_0Fr4xe2AWIn-3" value="" style="edgeStyle=orthogonalEdgeStyle;rounded=0;orthogonalLoop=1;jettySize=auto;html=1;labelBackgroundColor=none;fontColor=default;" edge="1" parent="1" source="WV0uYTEq_0Fr4xe2AWIn-42" target="WV0uYTEq_0Fr4xe2AWIn-2">
          <mxGeometry relative="1" as="geometry" />
        </mxCell>
        <mxCell id="WV0uYTEq_0Fr4xe2AWIn-58" value="" style="edgeStyle=orthogonalEdgeStyle;rounded=0;orthogonalLoop=1;jettySize=auto;html=1;" edge="1" parent="1" source="WV0uYTEq_0Fr4xe2AWIn-1" target="WV0uYTEq_0Fr4xe2AWIn-42">
          <mxGeometry relative="1" as="geometry" />
        </mxCell>
        <mxCell id="WV0uYTEq_0Fr4xe2AWIn-1" value="START" style="ellipse;whiteSpace=wrap;html=1;labelBackgroundColor=none;" vertex="1" parent="1">
          <mxGeometry x="360" y="10" width="120" height="60" as="geometry" />
        </mxCell>
        <mxCell id="WV0uYTEq_0Fr4xe2AWIn-9" value="" style="edgeStyle=orthogonalEdgeStyle;rounded=0;orthogonalLoop=1;jettySize=auto;html=1;labelBackgroundColor=none;fontColor=default;" edge="1" parent="1" source="WV0uYTEq_0Fr4xe2AWIn-2" target="WV0uYTEq_0Fr4xe2AWIn-8">
          <mxGeometry relative="1" as="geometry" />
        </mxCell>
        <mxCell id="WV0uYTEq_0Fr4xe2AWIn-57" value="NO" style="edgeLabel;html=1;align=center;verticalAlign=middle;resizable=0;points=[];" vertex="1" connectable="0" parent="WV0uYTEq_0Fr4xe2AWIn-9">
          <mxGeometry x="-0.1" y="-1" relative="1" as="geometry">
            <mxPoint as="offset" />
          </mxGeometry>
        </mxCell>
        <mxCell id="WV0uYTEq_0Fr4xe2AWIn-60" style="edgeStyle=orthogonalEdgeStyle;rounded=0;orthogonalLoop=1;jettySize=auto;html=1;exitX=0.5;exitY=1;exitDx=0;exitDy=0;entryX=0.5;entryY=0;entryDx=0;entryDy=0;" edge="1" parent="1" source="WV0uYTEq_0Fr4xe2AWIn-2" target="WV0uYTEq_0Fr4xe2AWIn-59">
          <mxGeometry relative="1" as="geometry" />
        </mxCell>
        <mxCell id="WV0uYTEq_0Fr4xe2AWIn-62" value="YES" style="edgeLabel;html=1;align=center;verticalAlign=middle;resizable=0;points=[];" vertex="1" connectable="0" parent="WV0uYTEq_0Fr4xe2AWIn-60">
          <mxGeometry x="-0.3" y="-2" relative="1" as="geometry">
            <mxPoint as="offset" />
          </mxGeometry>
        </mxCell>
        <mxCell id="WV0uYTEq_0Fr4xe2AWIn-2" value="LOGIN" style="rhombus;whiteSpace=wrap;html=1;labelBackgroundColor=none;" vertex="1" parent="1">
          <mxGeometry x="380" y="180" width="80" height="80" as="geometry" />
        </mxCell>
        <mxCell id="WV0uYTEq_0Fr4xe2AWIn-16" value="" style="edgeStyle=orthogonalEdgeStyle;rounded=0;orthogonalLoop=1;jettySize=auto;html=1;labelBackgroundColor=none;fontColor=default;" edge="1" parent="1" source="WV0uYTEq_0Fr4xe2AWIn-4" target="WV0uYTEq_0Fr4xe2AWIn-15">
          <mxGeometry relative="1" as="geometry" />
        </mxCell>
        <mxCell id="WV0uYTEq_0Fr4xe2AWIn-4" value="ENTER PRODUCT YOU WANT TO LOOK FOR" style="rounded=1;whiteSpace=wrap;html=1;labelBackgroundColor=none;" vertex="1" parent="1">
          <mxGeometry x="360" y="390" width="120" height="60" as="geometry" />
        </mxCell>
        <mxCell id="WV0uYTEq_0Fr4xe2AWIn-8" value="REGISTER" style="rhombus;whiteSpace=wrap;html=1;labelBackgroundColor=none;" vertex="1" parent="1">
          <mxGeometry x="550" y="180" width="80" height="80" as="geometry" />
        </mxCell>
        <mxCell id="WV0uYTEq_0Fr4xe2AWIn-50" style="edgeStyle=orthogonalEdgeStyle;rounded=0;orthogonalLoop=1;jettySize=auto;html=1;exitX=0.5;exitY=1;exitDx=0;exitDy=0;labelBackgroundColor=none;fontColor=default;" edge="1" parent="1" source="WV0uYTEq_0Fr4xe2AWIn-15" target="WV0uYTEq_0Fr4xe2AWIn-19">
          <mxGeometry relative="1" as="geometry" />
        </mxCell>
        <mxCell id="WV0uYTEq_0Fr4xe2AWIn-15" value="ADD TO CART" style="rounded=1;whiteSpace=wrap;html=1;labelBackgroundColor=none;" vertex="1" parent="1">
          <mxGeometry x="360" y="470" width="120" height="60" as="geometry" />
        </mxCell>
        <mxCell id="WV0uYTEq_0Fr4xe2AWIn-47" style="edgeStyle=orthogonalEdgeStyle;rounded=0;orthogonalLoop=1;jettySize=auto;html=1;exitX=0.5;exitY=1;exitDx=0;exitDy=0;entryX=0.5;entryY=0;entryDx=0;entryDy=0;labelBackgroundColor=none;fontColor=default;" edge="1" parent="1" source="WV0uYTEq_0Fr4xe2AWIn-19" target="WV0uYTEq_0Fr4xe2AWIn-25">
          <mxGeometry relative="1" as="geometry" />
        </mxCell>
        <mxCell id="WV0uYTEq_0Fr4xe2AWIn-48" style="edgeStyle=orthogonalEdgeStyle;rounded=0;orthogonalLoop=1;jettySize=auto;html=1;exitX=0.5;exitY=1;exitDx=0;exitDy=0;entryX=0.5;entryY=0;entryDx=0;entryDy=0;labelBackgroundColor=none;fontColor=default;" edge="1" parent="1" source="WV0uYTEq_0Fr4xe2AWIn-19" target="WV0uYTEq_0Fr4xe2AWIn-30">
          <mxGeometry relative="1" as="geometry" />
        </mxCell>
        <mxCell id="WV0uYTEq_0Fr4xe2AWIn-54" value="YES" style="edgeLabel;html=1;align=center;verticalAlign=middle;resizable=0;points=[];" vertex="1" connectable="0" parent="WV0uYTEq_0Fr4xe2AWIn-48">
          <mxGeometry x="-0.8429" relative="1" as="geometry">
            <mxPoint as="offset" />
          </mxGeometry>
        </mxCell>
        <mxCell id="WV0uYTEq_0Fr4xe2AWIn-51" style="edgeStyle=orthogonalEdgeStyle;rounded=0;orthogonalLoop=1;jettySize=auto;html=1;exitX=1;exitY=0.5;exitDx=0;exitDy=0;entryX=1;entryY=0.5;entryDx=0;entryDy=0;labelBackgroundColor=none;fontColor=default;" edge="1" parent="1" source="WV0uYTEq_0Fr4xe2AWIn-19" target="WV0uYTEq_0Fr4xe2AWIn-4">
          <mxGeometry relative="1" as="geometry">
            <mxPoint x="480" y="540" as="sourcePoint" />
            <mxPoint x="500" y="350" as="targetPoint" />
            <Array as="points">
              <mxPoint x="630" y="590" />
              <mxPoint x="630" y="400" />
            </Array>
          </mxGeometry>
        </mxCell>
        <mxCell id="WV0uYTEq_0Fr4xe2AWIn-55" value="NO" style="edgeLabel;html=1;align=center;verticalAlign=middle;resizable=0;points=[];" vertex="1" connectable="0" parent="WV0uYTEq_0Fr4xe2AWIn-51">
          <mxGeometry x="-0.7608" y="-2" relative="1" as="geometry">
            <mxPoint as="offset" />
          </mxGeometry>
        </mxCell>
        <mxCell id="WV0uYTEq_0Fr4xe2AWIn-19" value="PAYMENT" style="rhombus;whiteSpace=wrap;html=1;labelBackgroundColor=none;" vertex="1" parent="1">
          <mxGeometry x="380" y="550" width="80" height="80" as="geometry" />
        </mxCell>
        <mxCell id="WV0uYTEq_0Fr4xe2AWIn-33" style="edgeStyle=orthogonalEdgeStyle;rounded=0;orthogonalLoop=1;jettySize=auto;html=1;exitX=0.5;exitY=1;exitDx=0;exitDy=0;entryX=0.25;entryY=0;entryDx=0;entryDy=0;labelBackgroundColor=none;fontColor=default;" edge="1" parent="1" source="WV0uYTEq_0Fr4xe2AWIn-25" target="WV0uYTEq_0Fr4xe2AWIn-35">
          <mxGeometry relative="1" as="geometry">
            <mxPoint x="350" y="720" as="targetPoint" />
            <Array as="points" />
          </mxGeometry>
        </mxCell>
        <mxCell id="WV0uYTEq_0Fr4xe2AWIn-25" value="CASH ON DELIVERY" style="rounded=1;whiteSpace=wrap;html=1;labelBackgroundColor=none;" vertex="1" parent="1">
          <mxGeometry x="280" y="700" width="120" height="60" as="geometry" />
        </mxCell>
        <mxCell id="WV0uYTEq_0Fr4xe2AWIn-34" style="edgeStyle=orthogonalEdgeStyle;rounded=0;orthogonalLoop=1;jettySize=auto;html=1;exitX=0.5;exitY=1;exitDx=0;exitDy=0;entryX=0.917;entryY=0;entryDx=0;entryDy=0;entryPerimeter=0;labelBackgroundColor=none;fontColor=default;" edge="1" parent="1" source="WV0uYTEq_0Fr4xe2AWIn-30" target="WV0uYTEq_0Fr4xe2AWIn-35">
          <mxGeometry relative="1" as="geometry">
            <mxPoint x="500" y="640" as="targetPoint" />
          </mxGeometry>
        </mxCell>
        <mxCell id="WV0uYTEq_0Fr4xe2AWIn-30" value="ONLINE PAYMENT" style="rounded=1;whiteSpace=wrap;html=1;labelBackgroundColor=none;" vertex="1" parent="1">
          <mxGeometry x="440" y="700" width="120" height="60" as="geometry" />
        </mxCell>
        <mxCell id="WV0uYTEq_0Fr4xe2AWIn-45" style="edgeStyle=orthogonalEdgeStyle;rounded=0;orthogonalLoop=1;jettySize=auto;html=1;exitX=0.5;exitY=1;exitDx=0;exitDy=0;entryX=0.5;entryY=0;entryDx=0;entryDy=0;labelBackgroundColor=none;fontColor=default;" edge="1" parent="1" source="WV0uYTEq_0Fr4xe2AWIn-35" target="WV0uYTEq_0Fr4xe2AWIn-44">
          <mxGeometry relative="1" as="geometry" />
        </mxCell>
        <mxCell id="WV0uYTEq_0Fr4xe2AWIn-35" value="ORDER SUCCESSFULLY PLACED!" style="rounded=1;whiteSpace=wrap;html=1;labelBackgroundColor=none;" vertex="1" parent="1">
          <mxGeometry x="280" y="810" width="240" height="60" as="geometry" />
        </mxCell>
        <mxCell id="WV0uYTEq_0Fr4xe2AWIn-40" style="edgeStyle=orthogonalEdgeStyle;rounded=0;orthogonalLoop=1;jettySize=auto;html=1;exitX=0.5;exitY=1;exitDx=0;exitDy=0;entryX=0.5;entryY=0;entryDx=0;entryDy=0;labelBackgroundColor=none;fontColor=default;" edge="1" parent="1" source="WV0uYTEq_0Fr4xe2AWIn-37" target="WV0uYTEq_0Fr4xe2AWIn-39">
          <mxGeometry relative="1" as="geometry" />
        </mxCell>
        <mxCell id="WV0uYTEq_0Fr4xe2AWIn-37" value="LOG OUT" style="rounded=1;whiteSpace=wrap;html=1;labelBackgroundColor=none;" vertex="1" parent="1">
          <mxGeometry x="340" y="990" width="120" height="60" as="geometry" />
        </mxCell>
        <mxCell id="WV0uYTEq_0Fr4xe2AWIn-39" value="END" style="ellipse;whiteSpace=wrap;html=1;labelBackgroundColor=none;" vertex="1" parent="1">
          <mxGeometry x="340" y="1080" width="120" height="80" as="geometry" />
        </mxCell>
        <mxCell id="WV0uYTEq_0Fr4xe2AWIn-42" value="ADD YOUR LOGIN DETAILS TO CONTINUE" style="rounded=1;whiteSpace=wrap;html=1;labelBackgroundColor=none;" vertex="1" parent="1">
          <mxGeometry x="360" y="90" width="120" height="60" as="geometry" />
        </mxCell>
        <mxCell id="WV0uYTEq_0Fr4xe2AWIn-46" style="edgeStyle=orthogonalEdgeStyle;rounded=0;orthogonalLoop=1;jettySize=auto;html=1;exitX=0.5;exitY=1;exitDx=0;exitDy=0;entryX=0.5;entryY=0;entryDx=0;entryDy=0;labelBackgroundColor=none;fontColor=default;" edge="1" parent="1" source="WV0uYTEq_0Fr4xe2AWIn-44" target="WV0uYTEq_0Fr4xe2AWIn-37">
          <mxGeometry relative="1" as="geometry" />
        </mxCell>
        <mxCell id="WV0uYTEq_0Fr4xe2AWIn-44" value="THANK YOU!&lt;br&gt;VISIT US AGAIN" style="rounded=1;whiteSpace=wrap;html=1;labelBackgroundColor=none;" vertex="1" parent="1">
          <mxGeometry x="340" y="900" width="120" height="60" as="geometry" />
        </mxCell>
        <mxCell id="WV0uYTEq_0Fr4xe2AWIn-53" style="edgeStyle=orthogonalEdgeStyle;rounded=0;orthogonalLoop=1;jettySize=auto;html=1;exitX=1;exitY=0.5;exitDx=0;exitDy=0;entryX=0.625;entryY=0.125;entryDx=0;entryDy=0;entryPerimeter=0;labelBackgroundColor=none;fontColor=default;" edge="1" parent="1" source="WV0uYTEq_0Fr4xe2AWIn-8" target="WV0uYTEq_0Fr4xe2AWIn-2">
          <mxGeometry relative="1" as="geometry">
            <mxPoint x="440" y="210" as="targetPoint" />
            <Array as="points">
              <mxPoint x="640" y="220" />
              <mxPoint x="640" y="170" />
              <mxPoint x="480" y="170" />
              <mxPoint x="480" y="190" />
            </Array>
          </mxGeometry>
        </mxCell>
        <mxCell id="WV0uYTEq_0Fr4xe2AWIn-61" style="edgeStyle=orthogonalEdgeStyle;rounded=0;orthogonalLoop=1;jettySize=auto;html=1;exitX=0.5;exitY=1;exitDx=0;exitDy=0;entryX=0.5;entryY=0;entryDx=0;entryDy=0;" edge="1" parent="1" source="WV0uYTEq_0Fr4xe2AWIn-59" target="WV0uYTEq_0Fr4xe2AWIn-4">
          <mxGeometry relative="1" as="geometry" />
        </mxCell>
        <mxCell id="WV0uYTEq_0Fr4xe2AWIn-59" value="WELCOME TO ONLINE SHOPPING" style="rounded=1;whiteSpace=wrap;html=1;" vertex="1" parent="1">
          <mxGeometry x="360" y="300" width="120" height="60" as="geometry" />
        </mxCell>
      </root>
    </mxGraphModel>
  </diagram>
</mxfile>
